<mxfile host="app.diagrams.net" modified="2023-03-01T09:28:05.758Z" agent="5.0 (Windows NT 10.0; Win64; x64) AppleWebKit/537.36 (KHTML, like Gecko) Chrome/110.0.0.0 Safari/537.36 Edg/110.0.1587.57" etag="DJCWW-Iel_wTbJMJYyuV" version="20.8.20" type="github">
  <diagram name="Page-1" id="I8PeTmTg3TzZeyWxx62x">
    <mxGraphModel dx="1434" dy="756" grid="1" gridSize="10" guides="1" tooltips="1" connect="1" arrows="1" fold="1" page="1" pageScale="1" pageWidth="850" pageHeight="1100" math="0" shadow="0">
      <root>
        <mxCell id="0" />
        <mxCell id="1" parent="0" />
        <mxCell id="cEr0RKN4fDuj8Geg7ggm-4" value="" style="edgeStyle=orthogonalEdgeStyle;rounded=0;orthogonalLoop=1;jettySize=auto;html=1;fillColor=#f8cecc;strokeColor=#b85450;" edge="1" parent="1" source="cEr0RKN4fDuj8Geg7ggm-1" target="cEr0RKN4fDuj8Geg7ggm-3">
          <mxGeometry relative="1" as="geometry" />
        </mxCell>
        <mxCell id="cEr0RKN4fDuj8Geg7ggm-6" value="" style="edgeStyle=orthogonalEdgeStyle;rounded=0;orthogonalLoop=1;jettySize=auto;html=1;fillColor=#f8cecc;strokeColor=#b85450;" edge="1" parent="1" source="cEr0RKN4fDuj8Geg7ggm-1" target="cEr0RKN4fDuj8Geg7ggm-5">
          <mxGeometry relative="1" as="geometry" />
        </mxCell>
        <mxCell id="cEr0RKN4fDuj8Geg7ggm-1" value="Battery" style="rounded=0;whiteSpace=wrap;html=1;" vertex="1" parent="1">
          <mxGeometry x="260" y="220" width="120" height="60" as="geometry" />
        </mxCell>
        <mxCell id="cEr0RKN4fDuj8Geg7ggm-10" value="" style="edgeStyle=orthogonalEdgeStyle;rounded=0;orthogonalLoop=1;jettySize=auto;html=1;fillColor=#f8cecc;strokeColor=#b85450;" edge="1" parent="1" source="cEr0RKN4fDuj8Geg7ggm-3" target="cEr0RKN4fDuj8Geg7ggm-9">
          <mxGeometry relative="1" as="geometry" />
        </mxCell>
        <mxCell id="cEr0RKN4fDuj8Geg7ggm-3" value="Voltage Regulator" style="whiteSpace=wrap;html=1;rounded=0;" vertex="1" parent="1">
          <mxGeometry x="460" y="220" width="120" height="60" as="geometry" />
        </mxCell>
        <mxCell id="cEr0RKN4fDuj8Geg7ggm-5" value="Servo Motors" style="rounded=0;whiteSpace=wrap;html=1;" vertex="1" parent="1">
          <mxGeometry x="260" y="360" width="120" height="60" as="geometry" />
        </mxCell>
        <mxCell id="cEr0RKN4fDuj8Geg7ggm-11" style="edgeStyle=orthogonalEdgeStyle;rounded=0;orthogonalLoop=1;jettySize=auto;html=1;exitX=0;exitY=0.5;exitDx=0;exitDy=0;entryX=1;entryY=0.5;entryDx=0;entryDy=0;fillColor=#d5e8d4;strokeColor=#82b366;" edge="1" parent="1" source="cEr0RKN4fDuj8Geg7ggm-9" target="cEr0RKN4fDuj8Geg7ggm-5">
          <mxGeometry relative="1" as="geometry" />
        </mxCell>
        <mxCell id="cEr0RKN4fDuj8Geg7ggm-9" value="Microcontroller" style="whiteSpace=wrap;html=1;rounded=0;" vertex="1" parent="1">
          <mxGeometry x="460" y="360" width="120" height="60" as="geometry" />
        </mxCell>
        <mxCell id="cEr0RKN4fDuj8Geg7ggm-15" style="edgeStyle=orthogonalEdgeStyle;rounded=0;orthogonalLoop=1;jettySize=auto;html=1;fillColor=#f8cecc;strokeColor=#b85450;entryX=0.5;entryY=0;entryDx=0;entryDy=0;" edge="1" parent="1" source="cEr0RKN4fDuj8Geg7ggm-13" target="cEr0RKN4fDuj8Geg7ggm-1">
          <mxGeometry relative="1" as="geometry">
            <mxPoint x="320" y="210" as="targetPoint" />
          </mxGeometry>
        </mxCell>
        <mxCell id="cEr0RKN4fDuj8Geg7ggm-13" value="12V Power Supply" style="whiteSpace=wrap;html=1;rounded=0;" vertex="1" parent="1">
          <mxGeometry x="260" y="100" width="120" height="60" as="geometry" />
        </mxCell>
        <mxCell id="cEr0RKN4fDuj8Geg7ggm-16" style="edgeStyle=orthogonalEdgeStyle;rounded=0;orthogonalLoop=1;jettySize=auto;html=1;entryX=0;entryY=0.5;entryDx=0;entryDy=0;fillColor=#f8cecc;strokeColor=#b85450;" edge="1" parent="1">
          <mxGeometry relative="1" as="geometry">
            <mxPoint x="170" y="500" as="sourcePoint" />
            <mxPoint x="250" y="500" as="targetPoint" />
          </mxGeometry>
        </mxCell>
        <mxCell id="cEr0RKN4fDuj8Geg7ggm-17" value="Power" style="text;html=1;align=center;verticalAlign=middle;resizable=0;points=[];autosize=1;strokeColor=none;fillColor=none;" vertex="1" parent="1">
          <mxGeometry x="250" y="485" width="60" height="30" as="geometry" />
        </mxCell>
        <mxCell id="cEr0RKN4fDuj8Geg7ggm-18" style="edgeStyle=orthogonalEdgeStyle;rounded=0;orthogonalLoop=1;jettySize=auto;html=1;entryX=0;entryY=0.5;entryDx=0;entryDy=0;fillColor=#d5e8d4;strokeColor=#82b366;" edge="1" parent="1">
          <mxGeometry relative="1" as="geometry">
            <mxPoint x="170" y="530" as="sourcePoint" />
            <mxPoint x="250" y="530" as="targetPoint" />
          </mxGeometry>
        </mxCell>
        <mxCell id="cEr0RKN4fDuj8Geg7ggm-19" value="Data" style="text;html=1;align=center;verticalAlign=middle;resizable=0;points=[];autosize=1;strokeColor=none;fillColor=none;" vertex="1" parent="1">
          <mxGeometry x="255" y="515" width="50" height="30" as="geometry" />
        </mxCell>
      </root>
    </mxGraphModel>
  </diagram>
</mxfile>
